#define Logo_Bar_width 128
#define Logo_Bar_height 16
static unsigned char Logo_Bar_bits[] = {
   0x00, 0x00, 0x00, 0x00, 0x00, 0x00, 0x00, 0x00, 0x00, 0x00, 0x00, 0x00,
   0x00, 0x00, 0x02, 0x00, 0x00, 0x60, 0x18, 0x00, 0x00, 0x00, 0x00, 0x00,
   0x7e, 0x00, 0x00, 0x00, 0x00, 0x00, 0x02, 0x00, 0x00, 0x60, 0x18, 0x00,
   0x00, 0x00, 0x00, 0x00, 0xc2, 0x00, 0x00, 0x00, 0x00, 0x00, 0x02, 0x00,
   0x00, 0xa0, 0x18, 0x00, 0x00, 0x00, 0x00, 0x00, 0x82, 0x00, 0x00, 0x00,
   0x00, 0x00, 0x02, 0x00, 0x00, 0xa0, 0x14, 0x3f, 0xf0, 0x20, 0x8f, 0x07,
   0x82, 0xf0, 0x80, 0x1f, 0xf2, 0xf0, 0x02, 0x00, 0x00, 0xa0, 0x14, 0x61,
   0x8c, 0xa1, 0xc9, 0x18, 0xc2, 0x18, 0x83, 0x30, 0x9a, 0x98, 0x03, 0x00,
   0x00, 0xa0, 0x15, 0x60, 0x04, 0x60, 0x60, 0x10, 0x3e, 0x0c, 0x02, 0x30,
   0x06, 0x0c, 0x02, 0x00, 0x00, 0x20, 0x17, 0x40, 0x06, 0x60, 0x20, 0x10,
   0xc2, 0x04, 0x02, 0x20, 0x06, 0x04, 0x02, 0x00, 0x00, 0x20, 0x13, 0x7f,
   0x06, 0x60, 0x20, 0x30, 0x82, 0x04, 0x86, 0x3f, 0x06, 0x04, 0x02, 0x00,
   0x00, 0x20, 0x93, 0x41, 0x06, 0x60, 0x20, 0x10, 0x82, 0x04, 0xc2, 0x20,
   0x06, 0x04, 0x02, 0x00, 0x00, 0x20, 0x92, 0x41, 0x04, 0x60, 0x60, 0x10,
   0x82, 0x0c, 0xc2, 0x20, 0x06, 0x0c, 0x02, 0x00, 0x00, 0x20, 0x90, 0x71,
   0x8c, 0x61, 0xc0, 0x18, 0xc2, 0x18, 0xc3, 0x38, 0x06, 0x98, 0x03, 0x00,
   0x00, 0x20, 0x10, 0x5f, 0xf0, 0x60, 0x80, 0x07, 0x7e, 0xf0, 0x80, 0x2f,
   0x06, 0xf0, 0x02, 0x00, 0x00, 0x00, 0x00, 0x00, 0x00, 0x00, 0x00, 0x00,
   0x00, 0x00, 0x00, 0x00, 0x00, 0x00, 0x00, 0x00, 0x00, 0x00, 0x00, 0x00,
   0x00, 0x00, 0x00, 0x00, 0x00, 0x00, 0x00, 0x00, 0x00, 0x00, 0x00, 0x00,
   0xff, 0xff, 0xff, 0xff, 0xff, 0xff, 0xff, 0xff, 0xff, 0xff, 0xff, 0xff,
   0xff, 0xff, 0xff, 0xff };
